<?xml version="1.0" standalone="no"?><!DOCTYPE svg PUBLIC "-//W3C//DTD SVG 1.1//EN" "http://www.w3.org/Graphics/SVG/1.1/DTD/svg11.dtd"><svg t="1533133462897" class="icon" style="" viewBox="0 0 1024 1024" version="1.1" xmlns="http://www.w3.org/2000/svg" p-id="14769" xmlns:xlink="http://www.w3.org/1999/xlink" width="16" height="16"><defs><style type="text/css"></style></defs><path d="M494.336 467.914105h2.236632c-0.862316-0.309895-1.495579-0.592842-2.236632-0.862316v0.862316zM573.776842 569.290105c-2.236632-6.602105-6.629053-11.048421-13.244631-15.440842-6.629053-4.419368-13.244632-8.798316-19.833264-10.981052-6.642526-2.196211-11.034947-4.446316-17.677473-6.629053v116.88421c17.664 0 28.685474-6.629053 39.706947-15.440842 11.021474-11.021474 17.610105-24.266105 15.427368-44.099368 0-11.088842 0-17.677474-4.378947-24.293053zM494.336 368.720842c-15.386947 0-26.435368 4.378947-35.260632 11.008-8.811789 6.629053-13.204211 19.846737-13.20421 37.456842 0 8.852211 0 15.481263 4.392421 19.860211 4.419368 6.629053 8.811789 11.021474 13.244632 15.454316 4.419368 2.196211 11.048421 6.588632 17.623578 8.784842 5.753263 1.940211 8.313263 3.84 13.204211 5.753263v-98.317474z" fill="#099AF8" p-id="14770"></path><path d="M512 26.947368C243.038316 26.947368 26.947368 243.038316 26.947368 512c0 268.975158 216.090947 485.052632 485.052632 485.052632 268.975158 0 485.052632-216.077474 485.052632-485.052632C997.052632 243.038316 780.975158 26.947368 512 26.947368z m116.857263 606.31579c-6.615579 15.400421-13.271579 26.435368-24.293052 35.260631-8.744421 11.021474-22.042947 17.664-35.260632 22.056422-15.413895 4.419368-26.421895 8.811789-41.876211 8.811789v33.077895H498.795789v-37.470316c-17.650526 0-28.645053-4.419368-44.072421-8.81179-15.454316-4.419368-26.502737-13.231158-37.52421-22.056421-11.021474-8.811789-17.610105-22.056421-24.239158-35.260631-6.575158-13.285053-8.811789-30.868211-8.811789-48.532211h55.134315A79.333053 79.333053 0 0 0 452.527158 633.263158c8.784842 13.231158 22.042947 19.873684 44.085895 19.873684v-121.263158c-13.244632-4.446316-22.042947-8.838737-35.301053-13.20421-13.204211-4.432842-24.252632-11.048421-35.274105-19.873685-11.008-8.811789-19.846737-17.664-26.435369-30.86821-6.629053-13.231158-8.811789-28.685474-8.811789-46.295579 0-15.454316 2.182737-28.685474 8.811789-41.903158 6.588632-13.204211 13.244632-22.042947 24.239158-30.86821 8.825263-8.838737 22.056421-13.231158 35.274105-17.623579 13.217684-4.432842 22.042947-6.629053 37.497264-6.629053v-33.064421h28.631579v35.260632c15.440842 0 24.252632 2.196211 37.497263 6.629052 13.204211 4.419368 24.266105 8.852211 33.077894 17.623579 8.784842 8.811789 15.427368 17.664 22.056422 30.868211 6.575158 11.021474 8.757895 26.462316 8.757894 41.889684h-55.107368c0-17.637053-4.392421-30.868211-13.204211-39.693474-6.588632-8.784842-15.413895-13.204211-33.077894-13.20421v105.835789c13.204211 2.196211 24.252632 8.825263 37.497263 13.204211 15.413895 4.405895 26.448842 11.034947 37.470316 19.86021 10.994526 6.588632 19.846737 17.623579 28.658526 28.631579 6.602105 13.244632 8.784842 28.672 8.771368 46.322526 0 17.596632-2.182737 35.287579-8.784842 48.49179z" fill="#099AF8" p-id="14771"></path></svg>